<svg xmlns="http://www.w3.org/2000/svg" viewBox="0 0 32 32"><path d="M15.686 1023.358A13.46 13.46 0 0 0 8 1025.626c-5.347 3.573-7.435 10.458-4.974 16.4s8.803 9.33 15.111 8.076c6.308-1.255 10.871-6.815 10.871-13.246h-.006v-1.5h-12v4h7.82a9.63 9.63 0 0 1-7.437 6.961 9.63 9.63 0 0 1-10.795-5.77 9.63 9.63 0 0 1 3.553-11.712 9.626 9.626 0 0 1 12.18 1.2l2.73-2.728a13.5 13.5 0 0 0-9.367-3.949" style="color:#000;font-style:normal;font-variant:normal;font-weight:400;font-stretch:normal;font-size:medium;line-height:normal;font-family:sans-serif;text-indent:0;text-align:start;text-decoration:none;text-decoration-line:none;text-decoration-style:solid;text-decoration-color:#000;letter-spacing:normal;word-spacing:normal;text-transform:none;direction:ltr;block-progression:tb;writing-mode:lr-tb;baseline-shift:baseline;text-anchor:start;white-space:normal;clip-rule:nonzero;display:inline;overflow:visible;visibility:visible;opacity:1;isolation:auto;mix-blend-mode:normal;color-interpolation:sRGB;color-interpolation-filters:linearRGB;solid-color:#000;solid-opacity:1;fill:#ea4335;fill-opacity:1;fill-rule:evenodd;stroke:none;stroke-width:1;stroke-linecap:round;stroke-linejoin:round;stroke-miterlimit:4;stroke-dasharray:none;stroke-dashoffset:0;stroke-opacity:1;color-rendering:auto;image-rendering:auto;shape-rendering:auto;text-rendering:auto" transform="matrix(1.18343 0 0 1.18033 -2.316 -1207.774)"/><path d="m6.305 1039.765-3.205 2.418c2.508 5.842 8.786 9.163 15.037 7.92a13.46 13.46 0 0 0 7.29-4.112l-3.02-2.416a9.628 9.628 0 0 1-16.102-3.81" style="color:#000;font-style:normal;font-variant:normal;font-weight:400;font-stretch:normal;font-size:medium;line-height:normal;font-family:sans-serif;text-indent:0;text-align:start;text-decoration:none;text-decoration-line:none;text-decoration-style:solid;text-decoration-color:#000;letter-spacing:normal;word-spacing:normal;text-transform:none;direction:ltr;block-progression:tb;writing-mode:lr-tb;baseline-shift:baseline;text-anchor:start;white-space:normal;clip-rule:nonzero;display:inline;overflow:visible;visibility:visible;opacity:1;isolation:auto;mix-blend-mode:normal;color-interpolation:sRGB;color-interpolation-filters:linearRGB;solid-color:#000;solid-opacity:1;fill:#34a853;fill-opacity:1;fill-rule:evenodd;stroke:none;stroke-width:1;stroke-linecap:round;stroke-linejoin:round;stroke-miterlimit:4;stroke-dasharray:none;stroke-dashoffset:0;stroke-opacity:1;color-rendering:auto;image-rendering:auto;shape-rendering:auto;text-rendering:auto" transform="matrix(1.18343 0 0 1.18033 -2.316 -1207.774)"/><path d="M4.496 1029.034c-2.624 3.703-3.288 8.605-1.47 12.992.041.1.128.299.128.299 1.354-.782 2.354-1.468 3.306-2.116a9.63 9.63 0 0 1 1.068-8.79c-2.02-1.562-2.02-1.562-3.032-2.385" style="color:#000;font-style:normal;font-variant:normal;font-weight:400;font-stretch:normal;font-size:medium;line-height:normal;font-family:sans-serif;text-indent:0;text-align:start;text-decoration:none;text-decoration-line:none;text-decoration-style:solid;text-decoration-color:#000;letter-spacing:normal;word-spacing:normal;text-transform:none;direction:ltr;block-progression:tb;writing-mode:lr-tb;baseline-shift:baseline;text-anchor:start;white-space:normal;clip-rule:nonzero;display:inline;overflow:visible;visibility:visible;opacity:1;isolation:auto;mix-blend-mode:normal;color-interpolation:sRGB;color-interpolation-filters:linearRGB;solid-color:#000;solid-opacity:1;fill:#fbbc05;fill-opacity:1;fill-rule:evenodd;stroke:none;stroke-width:1;stroke-linecap:round;stroke-linejoin:round;stroke-miterlimit:4;stroke-dasharray:none;stroke-dashoffset:0;stroke-opacity:1;color-rendering:auto;image-rendering:auto;shape-rendering:auto;text-rendering:auto" transform="matrix(1.18343 0 0 1.18033 -2.316 -1207.774)"/><path d="M17.002 1035.357v4h7.82a9.6 9.6 0 0 1-2.416 4.218l3.022 2.416a13.48 13.48 0 0 0 3.58-9.134h-.006v-1.5z" style="color:#000;font-style:normal;font-variant:normal;font-weight:400;font-stretch:normal;font-size:medium;line-height:normal;font-family:sans-serif;text-indent:0;text-align:start;text-decoration:none;text-decoration-line:none;text-decoration-style:solid;text-decoration-color:#000;letter-spacing:normal;word-spacing:normal;text-transform:none;direction:ltr;block-progression:tb;writing-mode:lr-tb;baseline-shift:baseline;text-anchor:start;white-space:normal;clip-rule:nonzero;display:inline;overflow:visible;visibility:visible;opacity:1;isolation:auto;mix-blend-mode:normal;color-interpolation:sRGB;color-interpolation-filters:linearRGB;solid-color:#000;solid-opacity:1;fill:#4788f4;fill-opacity:1;fill-rule:evenodd;stroke:none;stroke-width:1;stroke-linecap:round;stroke-linejoin:round;stroke-miterlimit:4;stroke-dasharray:none;stroke-dashoffset:0;stroke-opacity:1;color-rendering:auto;image-rendering:auto;shape-rendering:auto;text-rendering:auto" transform="matrix(1.18343 0 0 1.18033 -2.316 -1207.774)"/><path d="M15.686 1023.358A13.46 13.46 0 0 0 8 1025.626c-5.347 3.573-7.435 10.458-4.974 16.4s8.803 9.33 15.111 8.076c6.308-1.255 10.871-6.815 10.871-13.246h-.006v-1.5h-12v4h7.82a9.63 9.63 0 0 1-7.437 6.961 9.63 9.63 0 0 1-10.795-5.77 9.63 9.63 0 0 1 3.553-11.712 9.626 9.626 0 0 1 12.18 1.2l2.73-2.728a13.5 13.5 0 0 0-9.367-3.949" style="color:#000;font-style:normal;font-variant:normal;font-weight:400;font-stretch:normal;font-size:medium;line-height:normal;font-family:sans-serif;text-indent:0;text-align:start;text-decoration:none;text-decoration-line:none;text-decoration-style:solid;text-decoration-color:#000;letter-spacing:normal;word-spacing:normal;text-transform:none;direction:ltr;block-progression:tb;writing-mode:lr-tb;baseline-shift:baseline;text-anchor:start;white-space:normal;clip-rule:nonzero;display:inline;overflow:visible;visibility:visible;opacity:1;isolation:auto;mix-blend-mode:normal;color-interpolation:sRGB;color-interpolation-filters:linearRGB;solid-color:#000;solid-opacity:1;fill:none;fill-opacity:1;fill-rule:evenodd;stroke:none;stroke-width:1;stroke-linecap:round;stroke-linejoin:round;stroke-miterlimit:4;stroke-dasharray:none;stroke-dashoffset:0;stroke-opacity:1;color-rendering:auto;image-rendering:auto;shape-rendering:auto;text-rendering:auto" transform="matrix(1.18343 0 0 1.18033 -2.316 -1207.774)"/><path d="m4.497 1028.934 3.03 2.468m14.885 12.12 2.99 2.435m-19.017-6.032-3.346 2.505" style="opacity:1;fill:none;fill-rule:evenodd;stroke:none;stroke-width:1px;stroke-linecap:butt;stroke-linejoin:miter;stroke-opacity:1" transform="matrix(1.18343 0 0 1.18033 -2.316 -1207.774)"/></svg>