<svg xmlns="http://www.w3.org/2000/svg" width="24" height="25" fill="none" viewBox="0 0 24 25"><g clip-path="url(#a)"><path fill="#27334b" d="M12 .5C5.373.5 0 5.873 0 12.5s5.373 12 12 12 12-5.373 12-12-5.373-12-12-12m10.473 11.25h-4.035a14 14 0 0 0-.054-1.036 14 14 0 0 0-1.06-4.185q1.412-.267 2.778-.709a10.45 10.45 0 0 1 2.371 5.93M8.301 6.574q1.465.25 2.949.335v4.841H7.063q.006-.443.047-.882A12.6 12.6 0 0 1 8.3 6.574m4.45-4.134c.88.868 1.647 1.842 2.286 2.9a23 23 0 0 1-2.286.109zm-1.5 0v2.965a25 25 0 0 1-2.186-.23q.265-.427.519-.78A14.6 14.6 0 0 1 11.25 2.44m0 10.809v4.841a27 27 0 0 0-2.543.27q-1.303-2.575-1.575-5.11zm0 6.344v2.656a24 24 0 0 1-1.758-2.484 25 25 0 0 1 1.758-.172m1.5-.047a23 23 0 0 1 1.845.073 24 24 0 0 1-1.845 2.63zm.903-1.484q-.45-.016-.903-.016V13.25h4.118q-.261 2.446-1.488 4.936a26 26 0 0 0-1.727-.123m-.903-6.313V6.952a25 25 0 0 0 3.041-.185 12.5 12.5 0 0 1 1.1 4.082q.04.45.046.901zm6.178-7.14q-1.128.32-2.285.516a16 16 0 0 0-1.92-2.77 10.44 10.44 0 0 1 4.205 2.254M9.276 2.357a16 16 0 0 0-1.79 2.535Q6.43 4.67 5.37 4.357a10.45 10.45 0 0 1 3.906-2M4.134 5.544q1.327.43 2.652.73a14.1 14.1 0 0 0-1.172 4.44q-.046.515-.054 1.035H1.527a10.44 10.44 0 0 1 2.607-6.205M1.527 13.25h4.098q.254 2.685 1.55 5.39-1.54.327-3.038.815a10.44 10.44 0 0 1-2.61-6.205m3.843 7.393q1.266-.375 2.532-.62.827 1.429 1.838 2.733a10.45 10.45 0 0 1-4.37-2.113m8.89 2.113a24.4 24.4 0 0 0 1.963-2.95q1.371.204 2.705.584a10.44 10.44 0 0 1-4.668 2.366m5.842-3.576a23 23 0 0 0-3.161-.777q1.191-2.583 1.436-5.153h4.096a10.45 10.45 0 0 1-2.37 5.93"/></g><defs><clipPath id="a"><path fill="#fff" d="M0 .5h24v24H0z"/></clipPath></defs></svg>