<svg xmlns="http://www.w3.org/2000/svg" width="300" height="300" fill="none" viewBox="250 0 100 300"><g clip-path="url(#a)"><path fill="#fad617" d="M290 1c7.021 0 14.041 0 21.737.355 6.931 1.244 13.262 1.774 19.43 3.077 77.119 16.283 127.678 86.283 118.988 164.58-7.042 63.452-55.302 116.365-117.771 129.158-4.147.85-8.257 1.882-12.384 2.83-51.355 0-102.709 0-154.758-.26-10.021-4.008-14.172-11.118-14.17-20.949.006-29.493-.086-58.987.035-88.481.073-17.486-.357-35.03.88-52.446 4.624-65.1 53.21-120.306 117.21-133.938C276.097 3.456 283.064 2.3 290 1m-20.385 106.978c4.096-1.434 6.592-4.148 5.729-8.638-.903-4.693-4.321-6.218-8.874-6.206-24.132.066-48.265.058-72.397.006-4.374-.01-8.051.902-9.127 5.787-1.117 5.07 1.658 7.789 6.443 10.006 1.216.355 2.43 1.016 3.646 1.019 23.219.062 46.438.076 69.657-.026 1.426-.006 2.848-1.054 4.923-1.948m140.811 89.529c.17-.385.339-.77.344-1.623.02-.346.15-.644 1.054-1.16.684-2.451 1.369-4.902 1.931-7.959.151-.592.301-1.183 1.069-2.034.382-2.247.765-4.494 1.067-7.416.091-.441.181-.882.839-1.507.063-.946.127-1.892.082-3.633.112-1.061.224-2.121.965-3.428.044-1.594.088-3.189-.009-5.628.092-1.709.184-3.418.49-5.332.155-.288.1-.545-.287-1.556-.719-5.975-3.089-8.561-7.727-8.433-4.598.128-6.633 3.204-7.23 8.904-.897 8.571-1.424 17.366-3.822 25.564-17.223 58.856-76.741 88.795-134.354 67.958-35.416-12.809-62.965-49.504-64.39-86.516.219-.208.403-.444 1.466-.932 12.997-.022 25.995-.048 38.992-.063 8.665-.011 17.332.094 25.995-.041 6.226-.097 10.004-4.565 8.287-9.568-1.495-4.358-4.969-5.315-9.148-5.305-23.829.054-47.659.007-71.488.036-7.926.01-10.062 2.225-9.794 10.271 1.215 36.489 16.368 66.042 44.657 88.899 17.014 13.747 36.774 21.149 58.644 24.87a79 79 0 0 0 3-.337c7.242.024 14.484.048 22.066.484.615-.245 1.23-.49 2.656-1.011 17.362-2.267 33.441-8.061 48.214-17.483 17.605-11.229 30.892-26.426 41.711-44.785.388-1.08.775-2.16 1.106-3.523 0 0 .187-.22.889-.486.384-1.132.768-2.263 1.109-3.998.405-.914.81-1.828 1.616-3.229m-160.927-62.111c5.662-.002 11.324.055 16.985-.023 5.666-.078 9.281-3.186 9.123-7.676-.152-4.344-3.643-7.261-9.012-7.331-6.16-.08-12.322-.021-18.484-.021-18.152.001-36.304-.039-54.455.025-6.384.022-10.022 3.895-8.77 9.189 1.142 4.832 4.779 5.863 9.158 5.852 18.151-.042 36.303-.016 55.455-.015"/><path fill="#fffefa" d="m418.044 157.993-.319 5.893c-.221 2.213-.399 3.66-.578 5.107l-.408 3.867a62 62 0 0 1-.576 3.132c-.091.441-.181.882-.378 1.987a401 401 0 0 1-1.579 7.011c-.15.592-.3 1.183-.674 2.339-.939 2.93-1.655 5.296-2.371 7.662-.241.249-.371.547-.593 1.31-.316.843-.43 1.268-.544 1.693a264 264 0 0 1-1.467 3.269c-.688 1.597-1.123 2.667-1.558 3.737 0 0-.187.22-.429.568-.677 1.375-1.111 2.402-1.545 3.429-10.137 18.105-23.425 33.302-41.03 44.531-14.773 9.422-30.852 15.216-48.899 17.579-1.228.232-1.77.367-2.311.502-7.242-.023-14.484-.047-22.581-.147-1.42-.08-1.985-.085-2.549-.09-21.466-3.218-41.226-10.62-58.24-24.367-28.289-22.857-43.441-52.41-44.657-88.899-.268-8.046 1.868-10.261 9.794-10.271 23.829-.029 47.659.018 71.488-.036 4.179-.01 7.653.947 9.148 5.305 1.717 5.003-2.061 9.471-8.286 9.568-8.664.135-17.331.03-25.996.041-12.997.015-25.994.041-39.723.187-.852.442-.974.76-1.095 1.079 1.785 36.741 29.334 73.436 64.75 86.245 57.614 20.837 117.131-9.102 134.354-67.958 2.398-8.198 2.925-16.993 3.822-25.564.597-5.7 2.632-8.776 7.23-8.903 4.638-.129 7.008 2.457 7.715 9.066.02.798.052.963.085 1.128"/><path fill="#fffef8" d="M248.999 135.396c-18.651-.001-36.803-.027-54.954.015-4.379.011-8.016-1.02-9.158-5.852-1.252-5.294 2.386-9.167 8.77-9.189 18.151-.064 36.303-.024 54.455-.025 6.161 0 12.324-.059 18.484.021 5.369.07 8.86 2.988 9.012 7.331.157 4.49-3.458 7.598-9.123 7.676-5.661.078-11.324.021-17.486.023"/><path fill="#fffefa" d="M191.033 108.267c-4.429-1.551-7.203-4.27-6.086-9.34 1.076-4.885 4.752-5.797 9.127-5.787 24.132.052 48.265.06 72.397-.006 4.553-.012 7.971 1.513 8.873 6.206.864 4.49-1.633 7.204-6.518 8.76-26.458.137-52.125.152-77.793.167"/><path fill="#fad600" d="M191.211 108.6c25.489-.348 51.157-.363 77.288-.335-.959.607-2.38 1.655-3.807 1.661-23.218.102-46.438.088-69.657.026-1.216-.003-2.43-.664-3.824-1.352"/><path fill="#fad70e" d="M414.516 184.861c.182-1.986.673-4.102 1.31-6.544-.237 1.92-.619 4.167-1.31 6.544m-3.023 9.997c.385-2.233 1.101-4.599 2.101-7.226-.401 2.19-1.085 4.641-2.101 7.226m5.97-25.988c-.137-1.324.041-2.771.333-4.562.07 1.25.026 2.845-.333 4.562m-1.016 7.03c-.116-.723.052-1.539.347-2.643.063.659 0 1.605-.347 2.643m-9.096 28.967c.084-.937.519-2.007 1.228-3.303-.109.907-.493 2.038-1.228 3.303m-1.985 4.003c.094-.9.528-1.927 1.233-3.161-.117.874-.505 1.954-1.233 3.161"/><path fill="#fad501" d="M312.955 271.816c.371-.342.913-.477 1.735-.571-.335.287-.95.532-1.735.571m-25.098-.192c.363-.247.927-.242 1.891-.092-.296.211-.992.277-1.891.092"/><path fill="#fad70e" d="M418.151 157.89c-.139-.062-.171-.227-.131-.633.339-.015.394.242.131.633"/><path fill="#fad400" d="M200.269 163.844c-.059-.184.063-.502.458-.832.125.252-.059.488-.458.832"/><path fill="#fad70e" d="M410.226 197.75c-.087-.181.026-.606.425-1.215.115.202-.055.587-.425 1.215"/></g><defs><clipPath id="a"><path fill="#fff" d="M0 0h600v300H0z"/></clipPath></defs></svg>