<svg xmlns="http://www.w3.org/2000/svg" width="2084" height="2084"><path fill="#fff" d="m1040.875-.187 3.508.001C1126.858-.07 1208.818 9.69 1289 29l2.241.537C1375.497 49.77 1457.683 81.233 1574 145l2.715 1.58c14.209 8.302 27.902 17.369 41.598 26.482l2.694 1.79c11.563 7.692 22.94 15.592 34.145 23.796 2.394 1.751 4.797 3.488 7.2 5.227a552 552 0 0 1 25.878 20.04c3.582 2.948 7.23 5.803 10.895 8.648 6.554 5.108 12.856 10.482 19.13 15.93a616 616 0 0 0 5.21 4.44 508 508 0 0 1 20.342 18.2c3.097 2.918 6.206 5.793 9.443 8.555 3.76 3.228 7.213 6.748 10.691 10.272 2.542 2.563 5.116 5.022 7.871 7.353 8.406 7.19 16.279 15.258 23.418 23.699 2.318 2.603 4.79 5.041 7.27 7.488 3.704 3.66 7.253 7.39 10.633 11.352 1.895 2.18 3.847 4.303 5.813 6.42a301 301 0 0 1 13.87 16.076c2.178 2.645 4.437 5.184 6.746 7.714 3.554 3.91 6.898 7.924 10.165 12.075a419 419 0 0 0 5.171 6.383c7.207 8.736 14.038 17.686 20.707 26.84a631 631 0 0 0 7.83 10.494c13.017 17.136 24.99 35.015 36.565 53.146l1.514 2.356c16.945 26.388 32.457 53.645 46.826 81.515a366 366 0 0 0 4.726 8.914c7.002 12.732 12.95 25.983 18.934 39.215l.866 1.912c32.422 71.697 56.547 146.956 85.822 313.65l.293 2.54c4.08 35.733 5.538 71.632 5.41 107.575-.017 4.852-.007 9.704.01 14.556.063 20.804-.404 41.506-1.784 62.267l-.186 2.806c-6.555 96.587-27.173 191.675-75.431 322.694l-.777 1.847c-15.89 37.703-33.094 75.062-53.671 110.46a608 608 0 0 0-4.716 8.365c-11.413 20.534-24.013 40.218-37.024 59.765l-1.507 2.267c-9.743 14.634-19.689 29.121-30.43 43.046l-2.053 2.677q-2.001 2.61-4.007 5.214-2.393 3.11-4.776 6.23A876 876 0 0 1 1853 1698l-2.074 2.57c-5.171 6.369-10.473 12.616-15.828 18.828a917 917 0 0 0-6.04 7.079c-6.803 8.038-13.875 15.776-21.108 23.43a352 352 0 0 0-4.14 4.528c-8.314 9.221-17.075 17.982-25.863 26.748q-3.963 3.958-7.918 7.924l-5.103 5.1-2.356 2.362c-4.14 4.123-8.359 8.091-12.796 11.895-2.944 2.55-5.754 5.24-8.586 7.911a263 263 0 0 1-15.555 13.457c-2.743 2.258-5.342 4.626-7.946 7.043-4.528 4.163-9.222 7.987-14.084 11.744a402 402 0 0 0-11.678 9.429c-8.93 7.46-18.16 14.41-27.58 21.237a474 474 0 0 0-6.61 4.934c-14.87 11.226-30.448 21.403-46.005 31.641-2.254 1.485-4.503 2.977-6.753 4.468-19.423 12.796-39.625 24.43-59.977 35.672l-3.016 1.666c-75.983 41.8-157.105 73.404-361.918 118.303l-2.307.32c-3.301.444-6.42.711-9.759.711v-717h282l1-9q.591-3.656 1.263-7.298l.376-2.056q.62-3.373 1.246-6.746l.9-4.894q1.226-6.668 2.46-13.333 1.313-7.12 2.622-14.237 2.24-12.176 4.487-24.35a105074 105074 0 0 0 9.906-53.762l3.502-19.011c4.665-25.32 9.32-50.641 13.951-75.967l1.593-8.71q3.425-18.713 6.84-37.424 1.274-6.978 2.55-13.955.582-3.174 1.159-6.347.773-4.245 1.551-8.49l.451-2.488c.564-3.06 1.157-5.975 2.143-8.932h-340c0-222.7 0-222.7 39-276l1.844-2.578c31.067-41.15 80.614-57.713 129.875-64.613 24.362-3.225 48.854-4.003 73.406-3.934l3.015.005c29.093.052 58.182.505 87.235 2.12l2.29.127c6.837.386 13.544.903 20.335 1.873V412l-8-1q-3.632-.67-7.25-1.418l-4.217-.854-2.23-.452c-43.703-8.797-87.96-13.9-132.366-17.526l-3.08-.252A1902 1902 0 0 0 1348 389l-2.306-.168c-16.517-1.173-33.082-1.033-49.631-1.02l-2.292.001c-22.977.01-45.867.182-68.771 2.187l-2.258.191C1155.035 395.937 1088.286 409.07 1026 437l-2.827 1.265C996 450.545 970.175 466.202 947 485l-2.762 2.184C926.71 501.21 909.74 517.229 896 535a768 768 0 0 1-2.742 3.332c-54.708 66.435-80.876 151.76-99.008 293.543l-.18 2.485c-1.898 26.85-2.247 53.704-2.374 80.607q-.031 6.116-.069 12.232c-.068 11.83-.128 23.659-.19 35.489L791 1043H576v317h215v694c-20.749-4.61-20.749-4.61-27.46-6.594l-2.385-.69q-3.767-1.1-7.53-2.216l-2.658-.782c-17.805-5.248-35.43-10.976-52.975-17.032q-2.857-.983-5.717-1.957C654.485 2011.797 617.837 1995.58 582 1978l-3.64-1.778c-15.809-7.735-31.343-15.802-46.58-24.625a736 736 0 0 0-8.643-4.874c-11.46-6.386-22.665-13.042-33.689-20.153a885 885 0 0 0-7.815-4.941 710 710 0 0 1-34.312-22.983 779 779 0 0 0-6.61-4.63c-10.686-7.432-21.043-15.265-31.357-23.205q-3.09-2.375-6.19-4.737c-9.68-7.382-19.055-15.101-28.326-22.988a521 521 0 0 0-10.4-8.586c-5.078-4.13-9.884-8.508-14.68-12.957a251 251 0 0 0-6.57-5.855c-9.35-8.12-18.292-16.709-26.989-25.52-2.653-2.615-5.44-5.034-8.265-7.461-4.701-4.15-9.054-8.625-13.122-13.395-3.256-3.795-6.758-7.298-10.312-10.812-4.04-3.999-7.957-8.019-11.637-12.355-2.004-2.307-4.076-4.538-6.162-6.77-5.075-5.433-9.908-10.972-14.564-16.773-2.096-2.552-4.277-4.985-6.512-7.415-3.98-4.372-7.638-8.929-11.26-13.597-3-3.866-6.055-7.68-9.159-11.462-11.69-14.246-22.508-29.129-33.206-44.128-.84-1.175-.84-1.175-1.695-2.375-9.473-13.303-18.507-26.866-27.305-40.625-.62-.97-1.24-1.94-1.88-2.938-14.729-23.109-28.275-46.86-41.12-71.062l-1.65-3.092c-28.397-53.358-51.25-109.278-69.678-166.816q-.96-2.988-1.935-5.97C19.795 1269.975 6.124 1183.071 1 1096l-.218-3.571c-5.543-95.014 4.142-191.807 51.538-378.371q.965-2.922 1.92-5.846c14.437-43.943 32.69-86.452 53.133-127.91a2451 2451 0 0 0 4.709-9.622c6.316-12.878 13.129-25.398 20.286-37.826a787 787 0 0 0 4.816-8.565C154.746 492.711 174.73 462.214 196 433l1.668-2.3c7.146-9.829 14.434-19.522 22.005-29.026a684 684 0 0 0 4.065-5.19c4.964-6.381 10.024-12.653 15.278-18.798 2.883-3.374 5.7-6.791 8.484-10.248 4.127-5.074 8.501-9.875 12.945-14.668A286 286 0 0 0 266.5 346c4.22-4.857 8.573-9.59 12.941-14.312a1062 1062 0 0 0 3.086-3.356c8.891-9.71 18.113-19.078 27.41-28.394l1.776-1.784c11.548-11.588 11.548-11.588 17.654-16.736 1.799-1.562 3.466-3.218 5.133-4.918 2.967-3.014 6.073-5.8 9.277-8.559 2.553-2.229 5.042-4.521 7.536-6.816 4.462-4.07 9.05-7.927 13.75-11.719 3.3-2.704 6.524-5.487 9.75-8.281 6.328-5.462 12.838-10.652 19.446-15.77a736 736 0 0 0 5.17-4.066 945 945 0 0 1 24.519-18.77 1290 1290 0 0 0 3.983-2.96C449.781 183.28 472.77 168.226 496 154l2.347-1.44c13.37-8.174 26.957-15.949 40.653-23.56l2.777-1.549C569.77 111.886 598.533 97.56 628 85l2.16-.922A1119 1119 0 0 1 706 55l2.188-.75C791.5 25.767 878.686 8.798 1040.875-.187"/></svg>