<svg xmlns="http://www.w3.org/2000/svg" viewBox="0 0 30 30"><title/><g data-name="Layer 2"><circle cx="15" cy="9.571" r="3.429" fill="none"/><path d="M25.312 20.4a1 1 0 1 0-.623 1.9c2.287.75 3.311 1.646 3.311 2.2 0 1.394-5.185 3.5-13 3.5S2 25.894 2 24.5c0-.554 1.024-1.45 3.312-2.2a1 1 0 1 0-.623-1.9C.813 21.67 0 23.331 0 24.5 0 28.11 7.546 30 15 30s15-1.89 15-5.5c0-1.169-.813-2.83-4.688-4.1"/><path d="M14.375 25.781a1 1 0 0 0 1.25 0c.365-.293 8.946-7.26 8.946-16.21a9.571 9.571 0 0 0-19.142 0c0 8.95 8.58 15.917 8.946 16.21m-2.804-16.21A3.429 3.429 0 1 1 15 13a3.43 3.43 0 0 1-3.429-3.429"/></g></svg>