<svg xmlns="http://www.w3.org/2000/svg" viewBox="0 0 512 512"><rect width="510.72" height="513.497" x=".417" y="-1.073" rx="55.43"/><path fill="#80c7cf" d="M370.144 187.163v-12.582s-28.123-1.78-48.703-24.166c13.356 24.528 35.682 33.56 48.703 36.748m-219.256 91.284c18.955-37.881 52.581-44.845 69.381-45.805v-14.337s-53.696-6.229-79.702 45.741c0 0-27.095 52.182 10.408 94.673-21.571-39.041-.087-80.272-.087-80.272m79.008 83.572c42.124-7.224 41.962-42.353 41.962-42.353V122.075h33.453a96 96 0 0 1-3.581-14.436h-40.129v197.627s1.115 38.904-41.964 42.353c0 0-18.757 1.483-32.733-10.849 11.882 27.728 42.992 25.249 42.992 25.249"/><path fill="#e03855" d="M311.989 122.075h-6.654a76 76 0 0 0 16.106 28.34 87.9 87.9 0 0 1-9.452-28.34M172.087 300.11c.619 18.435 6.974 29.672 14.867 36.609a60.7 60.7 0 0 1-4.548-22.159s1.017-40.934 48.22-39.552v-42.353a70 70 0 0 0-10.258-.063v27.917c-47.254-1.321-48.281 39.601-48.281 39.601"/><path fill="#e03855" d="M370.144 187.163v33.508c-45.494 4.808-68.414-33.022-68.414-33.022v116.608c-2.738 40.249-23.255 57.438-23.255 57.438-54.959 51.074-108.78 13.417-108.78 13.417a101.4 101.4 0 0 1-18.671-16.393c5.934 10.75 15.128 21.325 28.93 30.83 0 0 53.361 39.551 108.779-13.403 0 0 21.484-18.125 23.256-57.439V202.111s22.92 37.832 68.414 33.011v-46.091a66 66 0 0 1-10.259-1.868"/><path fill="#fff" d="M169.695 375.086s54.675 37.932 108.78-13.415c0 0 22.054-16.742 23.255-57.438V187.649s22.92 37.83 68.414 33.022v-33.508c-13.021-3.239-35.347-12.27-48.703-36.798a76 76 0 0 1-16.106-28.338h-33.451v197.689s.111 35.079-41.964 42.354c0 0-31.085 2.491-42.992-25.3-7.841-6.939-14.198-18.175-14.867-36.611 0 0 1.029-40.921 48.232-39.551v-27.966c-16.849.997-50.474 7.924-69.38 45.805 0 0-21.435 41.231.136 80.247a101.3 101.3 0 0 0 18.646 16.392"/></svg>